<?xml version="1.0" encoding="UTF-8"?>
<svg id="Layer_1" style="enable-background:new 0 0 96 96;" version="1.1" viewBox="0 0 96 96" xml:space="preserve" xmlns="http://www.w3.org/2000/svg" xmlns:xlink="http://www.w3.org/1999/xlink"><script xmlns=""/><style type="text/css">
	.st0{fill:none;stroke:#000000;stroke-width:4;stroke-linecap:round;stroke-linejoin:round;stroke-miterlimit:10;}
	.st1{fill:none;stroke:#000000;stroke-width:4;stroke-linecap:round;stroke-linejoin:round;}
	.st2{fill:none;stroke:#000000;stroke-width:4;stroke-linecap:round;stroke-linejoin:round;stroke-dasharray:4.8614,4.8614;}
	
		.st3{fill:none;stroke:#000000;stroke-width:4;stroke-linecap:round;stroke-linejoin:round;stroke-miterlimit:10;stroke-dasharray:5;}
	.st4{fill:none;stroke:#000000;stroke-width:4;stroke-linecap:round;stroke-linejoin:round;stroke-dasharray:8.3713,8.3713;}
	.st5{fill:none;stroke:#000000;stroke-width:4;stroke-linejoin:round;stroke-miterlimit:10;}
	.st6{fill:#C69C6D;stroke:#C69C6D;stroke-width:4;stroke-linecap:round;stroke-linejoin:round;stroke-miterlimit:10;}
	.st7{fill:#C69C6D;stroke:#A67C52;stroke-width:4;stroke-linecap:round;stroke-linejoin:round;stroke-miterlimit:10;}
	.st8{fill:#FDF57A;stroke:#FDF57A;stroke-width:4;stroke-linecap:round;stroke-linejoin:round;stroke-miterlimit:10;}
	.st9{fill:#DFFCB2;stroke:#DFFCB2;stroke-width:4;stroke-linecap:round;stroke-linejoin:round;stroke-miterlimit:10;}
	.st10{fill:#A5E1E2;stroke:#A5E1E2;stroke-width:4;stroke-linecap:round;stroke-linejoin:round;stroke-miterlimit:10;}
	.st11{fill:#BE7DBC;stroke:#BE7DBC;stroke-width:4;stroke-linecap:round;stroke-linejoin:round;stroke-miterlimit:10;}
	.st12{fill:none;stroke:#E5CBE4;stroke-width:4;stroke-linecap:round;stroke-linejoin:round;stroke-miterlimit:10;}
	.st13{fill:#C7B299;stroke:#C7B299;stroke-width:4;stroke-linecap:round;stroke-linejoin:round;stroke-miterlimit:10;}
	.st14{fill:none;stroke:#A67C52;stroke-width:4;stroke-linecap:round;stroke-linejoin:round;stroke-miterlimit:10;}
	.st15{fill:#E5F422;stroke:#E5F422;stroke-width:4;stroke-linecap:round;stroke-linejoin:round;stroke-miterlimit:10;}
	.st16{fill:#F48416;stroke:#F48416;stroke-width:4;stroke-linecap:round;stroke-linejoin:round;stroke-miterlimit:10;}
	.st17{fill:#34DA9D;stroke:#34DA9D;stroke-width:4;stroke-linecap:round;stroke-linejoin:round;stroke-miterlimit:10;}
	.st18{fill:#FF3597;stroke:#FF3597;stroke-width:4;stroke-linecap:round;stroke-linejoin:round;stroke-miterlimit:10;}
</style><g><path d="M78,28c-1.1,0-2-0.9-2-2V4c0-1.1,0.9-2,2-2s2,0.9,2,2v22C80,27.1,79.1,28,78,28z"/></g><g><path d="M18,28c-1.1,0-2-0.9-2-2V4c0-1.1,0.9-2,2-2s2,0.9,2,2v22C20,27.1,19.1,28,18,28z"/></g><g><path d="M78,70c-1.1,0-2-0.9-2-2V50c0-1.1,0.9-2,2-2s2,0.9,2,2v18C80,69.1,79.1,70,78,70z"/></g><g><path d="M18,70c-1.1,0-2-0.9-2-2V50c0-1.1,0.9-2,2-2s2,0.9,2,2v18C20,69.1,19.1,70,18,70z"/></g><path d="M92,24H4c-1.1,0-2,0.9-2,2v24c0,1.1,0.9,2,2,2h88c1.1,0,2-0.9,2-2V26C94,24.9,93.1,24,92,24z M22.4,41.6  c0.8,0.8,0.8,2,0,2.8C22,44.8,21.5,45,21,45s-1-0.2-1.4-0.6L13,37.8V43c0,1.1-0.9,2-2,2s-2-0.9-2-2V33c0-0.1,0-0.3,0-0.4  c0-0.1,0-0.1,0.1-0.2c0-0.1,0-0.1,0.1-0.2c0-0.1,0.1-0.1,0.1-0.2c0-0.1,0.1-0.1,0.1-0.2c0.1-0.2,0.3-0.4,0.6-0.6  c0.1,0,0.1-0.1,0.2-0.1c0.1,0,0.1-0.1,0.2-0.1c0.1,0,0.1,0,0.2-0.1c0.1,0,0.1,0,0.2,0c0.1,0,0.3,0,0.4,0h10c1.1,0,2,0.9,2,2  s-0.9,2-2,2h-5.2L22.4,41.6z M58,45H28c-1.1,0-2-0.9-2-2s0.9-2,2-2h30c1.1,0,2,0.9,2,2S59.1,45,58,45z M78,36H28c-1.1,0-2-0.9-2-2  s0.9-2,2-2h50c1.1,0,2,0.9,2,2S79.1,36,78,36z"/><path d="M92,66H4c-1.1,0-2,0.9-2,2v24c0,1.1,0.9,2,2,2h88c1.1,0,2-0.9,2-2V68C94,66.9,93.1,66,92,66z M23,85c0,1.1-0.9,2-2,2  s-2-0.9-2-2v-5.2l-6.6,6.6C12,86.8,11.5,87,11,87s-1-0.2-1.4-0.6c-0.8-0.8-0.8-2,0-2.8l6.6-6.6H11c-1.1,0-2-0.9-2-2s0.9-2,2-2h10  c0.1,0,0.3,0,0.4,0c0.1,0,0.1,0,0.2,0c0.1,0,0.1,0,0.2,0.1c0.1,0,0.1,0.1,0.2,0.1c0.1,0,0.1,0.1,0.2,0.1c0.2,0.1,0.4,0.3,0.6,0.6  c0,0,0.1,0.1,0.1,0.2c0,0.1,0.1,0.1,0.1,0.2c0,0.1,0,0.1,0.1,0.2c0,0.1,0,0.1,0.1,0.2c0,0.1,0,0.3,0,0.4V85z M58,87H28  c-1.1,0-2-0.9-2-2s0.9-2,2-2h30c1.1,0,2,0.9,2,2S59.1,87,58,87z M78,78H28c-1.1,0-2-0.9-2-2s0.9-2,2-2h50c1.1,0,2,0.9,2,2  S79.1,78,78,78z"/><style xmlns="http://www.w3.org/1999/xhtml" id="VMst0.07208976860490868">.select-text-inside-a-link{ -moz-user-select: text!important; }</style></svg>